<svg id="school" xmlns="http://www.w3.org/2000/svg" width="92.669" height="79.276" viewBox="0 0 92.669 79.276">
  <g id="Group_10033" data-name="Group 10033" transform="translate(0 0)">
    <path id="Path_3634" data-name="Path 3634" d="M88.778,104.511H86.059a4.946,4.946,0,0,0,.547-2.264l0-47.058a4.983,4.983,0,0,0-4.977-4.977H74.3V48.554a2.374,2.374,0,0,0-2.371-2.371H69.681V39.371a2.371,2.371,0,0,0-3.147-2.241l-4.276,1.479a1.357,1.357,0,0,0,.887,2.566l3.82-1.321V72.5L47.692,79.166V46.518l9.98-3.451a1.357,1.357,0,0,0-.887-2.566l-10.45,3.614-20.2-6.985a2.371,2.371,0,0,0-3.147,2.241v6.812H20.742a2.374,2.374,0,0,0-2.371,2.371v1.66h-7.33a4.983,4.983,0,0,0-4.977,4.977v4.827a1.357,1.357,0,1,0,2.715,0V55.191a2.265,2.265,0,0,1,2.262-2.262h7.33v2.715h-5.52A1.358,1.358,0,0,0,11.493,57l0,43.438a1.357,1.357,0,0,0,1.357,1.357l66.966,0a1.357,1.357,0,0,0,1.357-1.357l0-43.438a1.357,1.357,0,0,0-1.357-1.357H74.3V52.927h7.328a2.265,2.265,0,0,1,2.262,2.262l0,47.058a2.265,2.265,0,0,1-2.262,2.262l-70.586,0a2.265,2.265,0,0,1-2.262-2.262V65.827a1.357,1.357,0,1,0-2.715,0v36.422a4.943,4.943,0,0,0,.546,2.262H3.891A3.9,3.9,0,0,0,0,108.4v3.982a3.9,3.9,0,0,0,3.891,3.892H57.861a1.357,1.357,0,1,0,0-2.715H3.891a1.178,1.178,0,0,1-1.176-1.176V108.4a1.178,1.178,0,0,1,1.176-1.176h33.3v.954a3.394,3.394,0,0,0,3.39,3.39h11.5a3.394,3.394,0,0,0,3.39-3.39v-.954h33.3a1.178,1.178,0,0,1,1.176,1.176v3.982a1.178,1.178,0,0,1-1.176,1.176H63.787a1.357,1.357,0,1,0,0,2.715H88.778a3.9,3.9,0,0,0,3.891-3.891V108.4a3.9,3.9,0,0,0-3.891-3.892ZM68.085,74.986a2.373,2.373,0,0,0,1.6-2.241V48.9h1.9V79.714H54.414ZM25.7,39.853l19.274,6.665V79.166L25.7,72.5ZM21.086,48.9h1.9V72.746a2.373,2.373,0,0,0,1.6,2.241l13.671,4.728H21.086Zm57.374,9.459,0,40.723-64.252,0,0-40.723h4.163v21.7a2.374,2.374,0,0,0,2.371,2.371H71.927A2.374,2.374,0,0,0,74.3,80.058v-21.7ZM52.76,108.18a.676.676,0,0,1-.675.675h-11.5a.676.676,0,0,1-.675-.675v-.954H52.76Z" transform="translate(0 -37)" fill="#f06157"/>
    <path id="Path_3635" data-name="Path 3635" d="M187.007,309.387h-35.66a1.357,1.357,0,1,0,0,2.715h35.66a1.357,1.357,0,1,0,0-2.715Z" transform="translate(-122.842 -260.086)" fill="#f06157"/>
    <path id="Path_3636" data-name="Path 3636" d="M174.473,341.2H151.346a1.357,1.357,0,1,0,0,2.715h23.126a1.357,1.357,0,0,0,0-2.715Z" transform="translate(-122.842 -286.143)" fill="#f06157"/>
  </g>
</svg>
