<svg id="teacher" xmlns="http://www.w3.org/2000/svg" width="92.67" height="79.844" viewBox="0 0 92.67 79.844">
  <path id="Path_3640" data-name="Path 3640" d="M403.319,297.352h-8.688a1.357,1.357,0,1,0,0,2.715h8.688a1.357,1.357,0,1,0,0-2.715Z" transform="translate(-322.093 -249.946)" fill="#f06157"/>
  <path id="Path_3641" data-name="Path 3641" d="M403.319,328.181h-8.688a1.357,1.357,0,0,0,0,2.715h8.688a1.357,1.357,0,0,0,0-2.715Z" transform="translate(-322.093 -275.195)" fill="#f06157"/>
  <path id="Path_3642" data-name="Path 3642" d="M403.319,266.523h-8.688a1.357,1.357,0,1,0,0,2.715h8.688a1.357,1.357,0,1,0,0-2.715Z" transform="translate(-322.093 -224.697)" fill="#f06157"/>
  <path id="Path_3643" data-name="Path 3643" d="M280.388,256.769a2.2,2.2,0,0,0-2.2,2.2v1.286h-3.185a2.2,2.2,0,0,0-2.2,2.2v1.161h-3.194a2.2,2.2,0,0,0-2.2,2.2v6.357a2.017,2.017,0,0,0,2.014,2.015h14.845a2.017,2.017,0,0,0,2.014-2.015v-13.2a2.2,2.2,0,0,0-2.2-2.2Zm-7.576,14.691h-2.674v-5.138h2.674Zm5.381,0h-2.666v-8.494h2.666Zm5.389,0h-2.666c0-8.78-.009-11.571-.009-11.976h2.674V271.46Z" transform="translate(-219.02 -216.708)" fill="#f06157"/>
  <path id="Path_3644" data-name="Path 3644" d="M3.338,115.275H26.275a1.357,1.357,0,0,0,0-2.715H12.326V94.323a1.357,1.357,0,0,0-2.715,0V112.56H3.338a.624.624,0,0,1-.624-.624V92.723a8.833,8.833,0,0,1,5.094-7.961l8.827-3.447,5.253,5.253a10.679,10.679,0,0,0,15.106,0l5.179-5.18V99.354a3.487,3.487,0,0,0,3.483,3.484h.9v9.723H32.609a1.357,1.357,0,0,0,0,2.715H55.545a3.342,3.342,0,0,0,3.338-3.338v-9.1h5.634V107a4.249,4.249,0,1,0,2.715,0v-4.163h18.86a3.487,3.487,0,0,0,3.483-3.484V87.363a1.357,1.357,0,0,0-2.715,0V99.354a.769.769,0,0,1-.769.769H45.658a.769.769,0,0,1-.769-.769V67.617H86.862V81.028a1.357,1.357,0,0,0,2.715,0V67.617h0a3.1,3.1,0,0,0,3.092-3.092V61.908a3.1,3.1,0,0,0-3.092-3.092H46.786a5.884,5.884,0,0,0-2.305-3.664,3.405,3.405,0,0,0,.2-1.154V45.23a4.789,4.789,0,0,0-5.055-4.783.675.675,0,0,1-.749-.5c-.595-3.04-2.5-4.518-5.839-4.518H21.523a9.023,9.023,0,0,0-9.013,9.013v8.4a4.563,4.563,0,0,0,1.179,3.064A5.575,5.575,0,0,0,17.2,65.476,12.339,12.339,0,0,0,22,73.613V76.3L6.808,82.238l-.023.009A11.478,11.478,0,0,0,0,92.723v19.214a3.342,3.342,0,0,0,3.338,3.338Zm62.537-5.784a1.534,1.534,0,1,1-1.534,1.534A1.536,1.536,0,0,1,65.876,109.491Zm-16.6-6.654h6.9v9.1a.624.624,0,0,1-.624.624H49.273v-9.723ZM25.9,86.15l2.656-2.674,0-.006a2.35,2.35,0,0,0,.3-.386H30a2.316,2.316,0,0,0,.308.391l2.663,2.681A7.959,7.959,0,0,1,25.9,86.15Zm-1.185-9.522c0-.034,0-.069,0-.1V75.131a12.856,12.856,0,0,0,9.446.021v1.383c0,.026,0,.052,0,.078L30.379,80.37h-1.9Zm10.474,7.908L32.63,81.962l3.148-3.125,3.683,1.426ZM42.175,78.4l-5.3-2.051,0-2.725a12.245,12.245,0,0,0,4.37-6.153,3.078,3.078,0,0,0,.929.143h0Zm47.4-16.873a.378.378,0,0,1,.377.377v2.616a.378.378,0,0,1-.377.378h-47.4a.378.378,0,0,1-.377-.378V61.908a.378.378,0,0,1,.377-.378Zm-46.99-4.372a3.139,3.139,0,0,1,1.394,1.657H42.174a3.778,3.778,0,0,0-.377.023V57.384A3.663,3.663,0,0,0,42.588,57.158Zm-25.5,5.549A2.968,2.968,0,0,1,14.708,59.9a3.145,3.145,0,0,1,1.5-2.561,4.579,4.579,0,0,0,.656.08q.112.006.223.006v5.28Zm0-7.995a1.872,1.872,0,0,1-1.866-1.866v-8.4a6.305,6.305,0,0,1,6.3-6.3h11.52c2.515,0,2.925,1.052,3.174,2.324a3.393,3.393,0,0,0,3.622,2.684A2.078,2.078,0,0,1,41.97,45.23V54a.729.729,0,0,1-.715.715,2.609,2.609,0,0,1-2.6-2.6,1.563,1.563,0,0,0-2.938-.738,6.292,6.292,0,0,1-5.556,3.334H17.09ZM19.8,63.844V57.427H30.166a9.007,9.007,0,0,0,6.454-2.722,5.344,5.344,0,0,0,2.462,2.254v6.885a9.641,9.641,0,0,1-19.279,0Zm3.252,14.964,3.178,3.155-2.546,2.563L19.4,80.236Z" transform="translate(0 -35.431)" fill="#f06157"/>
</svg>
